<?xml version="1.0" encoding="UTF-8"?>
<svg version="1.1" xmlns="http://www.w3.org/2000/svg" width="132" height="116">
<path d="M0 0 C7.70460661 -0.07620909 15.4091156 -0.12866692 23.11401367 -0.16479492 C25.73384229 -0.17985979 28.35364578 -0.20031554 30.97338867 -0.22631836 C34.74404105 -0.26280162 38.51435926 -0.27974988 42.28515625 -0.29296875 C43.45208511 -0.30845261 44.61901398 -0.32393646 45.82130432 -0.33988953 C51.96827766 -0.34115506 56.64575172 -0.15768097 62 3 C64.50771188 6.76156781 64.13508962 8.45409717 63.55078125 12.76953125 C62.77279366 15.92010512 61.34343712 17.79858937 59 20 C58.34 20 57.68 20 57 20 C57 20.66 57 21.32 57 22 C55.783125 22.391875 54.56625 22.78375 53.3125 23.1875 C47.57405605 25.34068605 44.73304585 28.5339083 42 34 C52.89 34.495 52.89 34.495 64 35 C63 40 63 40 61.30516052 41.29335022 C58.48852708 42.15679265 56.06623642 42.27628439 53.11743164 42.30639648 C51.93262711 42.32238388 50.74782257 42.33837128 49.52711487 42.35484314 C48.25101852 42.36020584 46.97492218 42.36556854 45.66015625 42.37109375 C43.68878944 42.38463646 43.68878944 42.38463646 41.67759705 42.39845276 C38.89775133 42.41492147 36.11802576 42.42263917 33.33813477 42.42553711 C29.78243626 42.43092438 26.227872 42.46862479 22.67249393 42.51428127 C19.27255304 42.5512364 15.87279118 42.5525665 12.47265625 42.55859375 C11.19858414 42.57812607 9.92451202 42.59765839 8.61183167 42.61778259 C-1.20633139 42.5675517 -1.20633139 42.5675517 -4.34204102 39.46508789 C-4.88916748 38.65160889 -5.43629395 37.83812988 -6 37 C-5.01171875 35.51171875 -5.01171875 35.51171875 -3 34 C-0.18872957 33.78285759 2.3883345 33.71715724 5.1875 33.8125 C6.31188477 33.83280273 6.31188477 33.83280273 7.45898438 33.85351562 C9.30629767 33.88881461 11.15324066 33.94262083 13 34 C12.21249724 30.87121578 12.21249724 30.87121578 9.75 28.8125 C3.84346993 22.77173061 0.01836471 15.79444813 -0.6875 7.3125 C-0.81705078 5.88357422 -0.81705078 5.88357422 -0.94921875 4.42578125 C-1 2 -1 2 0 0 Z M55 7 C54.67 10.3 54.34 13.6 54 17 C54.99 16.34 55.98 15.68 57 15 C57 14.34 57 13.68 57 13 C57.66 12.67 58.32 12.34 59 12 C59 10.35 59 8.7 59 7 C57.68 7 56.36 7 55 7 Z " fill="#4E4F55" transform="translate(40,61)"/>
<path d="M0 0 C21.78 0 43.56 0 66 0 C65.67 1.65 65.34 3.3 65 5 C61.81922787 6.06025738 59.54124821 6.13313327 56.19921875 6.14526367 C55.0078833 6.15164352 53.81654785 6.15802338 52.58911133 6.16459656 C51.30157959 6.16570938 50.01404785 6.1668222 48.6875 6.16796875 C47.3537594 6.1711822 46.02001915 6.17454634 44.6862793 6.17805481 C41.89208153 6.18404021 39.09791467 6.18589525 36.30371094 6.18530273 C32.72240685 6.185201 29.14130051 6.19886745 25.56004333 6.21607494 C22.80626514 6.22718838 20.0525349 6.22922217 17.29873657 6.22869301 C15.33610569 6.23044765 13.37348977 6.24129007 11.41088867 6.25224304 C10.21955322 6.24916641 9.02821777 6.24608978 7.80078125 6.24291992 C6.75059814 6.24434494 5.70041504 6.24576996 4.6184082 6.24723816 C2 6 2 6 -1 4 C-0.67 2.68 -0.34 1.36 0 0 Z " fill="#7C7D7F" transform="translate(37,97)"/>
<path d="M0 0 C0.66 0 1.32 0 2 0 C1.125 5.75 1.125 5.75 0 8 C-0.98269862 15.17369992 0.6911409 19.95503028 3.87890625 26.3125 C5.60830762 30.45824266 5.49326527 33.56061257 5 38 C4.34 38.66 3.68 39.32 3 40 C2.67 40.66 2.34 41.32 2 42 C1.34 42 0.68 42 0 42 C0 42.66 0 43.32 0 44 C-1.485 44.495 -1.485 44.495 -3 45 C-3 43.33333333 -3 41.66666667 -3 40 C-2.34 40 -1.68 40 -1 40 C-1.27249077 34.45935432 -2.05632267 30.53237708 -4.5625 25.5625 C-7.10133032 20.26278422 -8.23322904 15.82893414 -7 10 C-5.23264845 6.12092325 -3.00628421 3.00628421 0 0 Z " fill="#A7A7A9" transform="translate(75,6)"/>
<path d="M0 0 C0.99 0.33 1.98 0.66 3 1 C2.79375 2.010625 2.5875 3.02125 2.375 4.0625 C1.9696371 8.31881048 2.61294931 10.99296467 4 15 C4.33 15.99 4.66 16.98 5 18 C5.66 18 6.32 18 7 18 C8.9078584 21.1749094 9.1609041 23.10585211 8.625 26.75 C8.45871094 27.94882812 8.45871094 27.94882812 8.2890625 29.171875 C8.19367188 29.77515625 8.09828125 30.3784375 8 31 C7.01 31.33 6.02 31.66 5 32 C5 32.66 5 33.32 5 34 C4.34 34 3.68 34 3 34 C3.06960937 33.39414062 3.13921875 32.78828125 3.2109375 32.1640625 C3.56485933 26.68670078 3.05445487 23.52295093 -0.0625 18.9375 C-2.94782788 14.61969169 -3.56614908 12.0641494 -2.56640625 6.984375 C-1.87601104 4.5656111 -1.09649931 2.26609857 0 0 Z " fill="#AEAEAF" transform="translate(58,20)"/>
<path d="M0 0 C3.69230769 0.69230769 3.69230769 0.69230769 5 2 C5.04080783 3.99958364 5.04254356 6.00045254 5 8 C5.66 8 6.32 8 7 8 C7.33 5.69 7.66 3.38 8 1 C8.33 1 8.66 1 9 1 C8.74818536 6.77914605 8.43884891 10.83017224 4 15 C3.34 15 2.68 15 2 15 C2 15.66 2 16.32 2 17 C1.44570312 17.20496094 0.89140625 17.40992187 0.3203125 17.62109375 C-0.40414062 17.89050781 -1.12859375 18.15992187 -1.875 18.4375 C-2.59429687 18.70433594 -3.31359375 18.97117187 -4.0546875 19.24609375 C-6.03648845 19.97916854 -6.03648845 19.97916854 -8 21 C-7.1875 19.0625 -7.1875 19.0625 -6 17 C-5.01 16.67 -4.02 16.34 -3 16 C-3.19335938 15.45730469 -3.38671875 14.91460937 -3.5859375 14.35546875 C-4.12042454 11.31494345 -3.48438022 9.26514121 -2.625 6.3125 C-2.34914063 5.33925781 -2.07328125 4.36601563 -1.7890625 3.36328125 C-1 1 -1 1 0 0 Z M0 2 C-0.33 5.3 -0.66 8.6 -1 12 C-0.01 11.34 0.98 10.68 2 10 C2 9.34 2 8.68 2 8 C2.66 7.67 3.32 7.34 4 7 C4 5.35 4 3.7 4 2 C2.68 2 1.36 2 0 2 Z " fill="#EFEFEF" transform="translate(95,66)"/>
<path d="M0 0 C1.27654953 0.01071785 1.27654953 0.01071785 2.57888794 0.02165222 C3.9066777 0.02179573 3.9066777 0.02179573 5.2612915 0.02194214 C8.14724127 0.02567369 11.0328525 0.04460269 13.91873169 0.06462097 C15.88463227 0.0714591 17.85053402 0.07796931 19.81643677 0.08415222 C33.84652491 0.14740682 47.84571754 0.47760094 61.85623169 1.25212097 C61.52623169 2.24212097 61.19623169 3.23212097 60.85623169 4.25212097 C60.85623169 3.59212097 60.85623169 2.93212097 60.85623169 2.25212097 C52.28528009 2.33639995 43.71453882 2.43123405 35.14386177 2.53964806 C31.16439442 2.58965203 27.18495415 2.63598144 23.20535278 2.67399597 C19.36676287 2.71079734 15.52839729 2.75714272 11.68999863 2.81018448 C10.22357991 2.82875594 8.75711306 2.84385369 7.29062271 2.85546494 C5.24080548 2.87228085 3.19150513 2.90130295 1.14187622 2.93327332 C-0.61018631 2.95325882 -0.61018631 2.95325882 -2.39764404 2.97364807 C-5.28747403 2.97438664 -5.28747403 2.97438664 -7.14376831 5.25212097 C-7.47376831 4.26212097 -7.80376831 3.27212097 -8.14376831 2.25212097 C-5.50360244 -0.38804489 -3.59223539 0.01396865 0 0 Z " fill="#F5F5F5" transform="translate(42.143768310546875,94.74787902832031)"/>
<path d="M0 0 C9.24 0 18.48 0 28 0 C27.34 1.32 26.68 2.64 26 4 C21.71 4 17.42 4 13 4 C13 3.34 13 2.68 13 2 C11.081875 1.9690625 11.081875 1.9690625 9.125 1.9375 C8.40570313 1.92589844 7.68640625 1.91429688 6.9453125 1.90234375 C4.91814596 1.87350758 4.91814596 1.87350758 3 3 C3 2.34 3 1.68 3 1 C2.01 0.67 1.02 0.34 0 0 Z " fill="#4D4E52" transform="translate(75,97)"/>
<path d="M0 0 C2.99107824 0.26009376 5.32408204 0.60753151 7.9375 2.125 C9.64468809 5.13768486 8.67845209 7.7310945 8 11 C7.34 11 6.68 11 6 11 C5.34 8.69 4.68 6.38 4 4 C3.01 4 2.02 4 1 4 C0.67 5.65 0.34 7.3 0 9 C-0.33 8.34 -0.66 7.68 -1 7 C-1.66 7 -2.32 7 -3 7 C-1.125 1.125 -1.125 1.125 0 0 Z " fill="#555658" transform="translate(94,63)"/>
<path d="M0 0 C0.99 0.33 1.98 0.66 3 1 C2.814375 2.010625 2.62875 3.02125 2.4375 4.0625 C2.00231753 7.97914227 2.29146979 11.14244663 3 15 C2.34 15 1.68 15 1 15 C0.67 13.68 0.34 12.36 0 11 C-0.33 12.65 -0.66 14.3 -1 16 C-3 14 -3 14 -3.046875 12.01171875 C-2.49925341 7.72441811 -1.90566194 3.93836801 0 0 Z " fill="#B4B4B4" transform="translate(58,20)"/>
<path d="M0 0 C1.32 0.33 2.64 0.66 4 1 C4.18175781 1.84884766 4.18175781 1.84884766 4.3671875 2.71484375 C4.53476562 3.44832031 4.70234375 4.18179688 4.875 4.9375 C5.03742187 5.66839844 5.19984375 6.39929688 5.3671875 7.15234375 C5.82961523 9.20700294 5.82961523 9.20700294 8 10 C8 10.66 8 11.32 8 12 C8.99 12 9.98 12 11 12 C11 12.66 11 13.32 11 14 C11.66 14.33 12.32 14.66 13 15 C12.67 15.99 12.34 16.98 12 18 C11.34 18 10.68 18 10 18 C9.67 17.01 9.34 16.02 9 15 C8.236875 14.236875 7.47375 13.47375 6.6875 12.6875 C3.94974927 9.94974927 1.92704346 7.35448305 0 4 C0 2.68 0 1.36 0 0 Z " fill="#949497" transform="translate(43,77)"/>
<path d="M0 0 C-0.875 5.75 -0.875 5.75 -2 8 C-2.67799052 14.89724976 -1.58992747 20.61767873 1 27 C-1.75224293 24.62306293 -2.9571121 22.48125914 -4 19 C-4.1953125 15.66796875 -4.1953125 15.66796875 -4.125 12.1875 C-4.10695313 11.02605469 -4.08890625 9.86460938 -4.0703125 8.66796875 C-4.04710938 7.78753906 -4.02390625 6.90710938 -4 6 C-4.99 6.99 -5.98 7.98 -7 9 C-6.53149863 4.78348764 -4.94559315 0 0 0 Z " fill="#F2F2F2" transform="translate(77,6)"/>
<path d="M0 0 C0 3.41775006 -0.24982104 6.77881173 -0.5 10.1875 C-0.5928125 11.45980469 -0.685625 12.73210938 -0.78125 14.04296875 C-0.8534375 15.01878906 -0.925625 15.99460937 -1 17 C-1.99 16.67 -2.98 16.34 -4 16 C-5.56659619 9.25158562 -5.56659619 9.25158562 -3.953125 5.6875 C-2.70581148 3.72543379 -1.41655623 1.84299357 0 0 Z " fill="#565659" transform="translate(74,9)"/>
<path d="M0 0 C2.57798841 0.36363205 3.69164073 0.59533633 5.30078125 2.70703125 C5.63464844 3.40183594 5.96851562 4.09664062 6.3125 4.8125 C6.65925781 5.49957031 7.00601563 6.18664063 7.36328125 6.89453125 C8.10314333 9.34106905 7.82973374 10.61786119 7 13 C6.01 12.67 5.02 12.34 4 12 C3.0859375 10.0390625 3.0859375 10.0390625 2.375 7.625 C2.13523437 6.83351563 1.89546875 6.04203125 1.6484375 5.2265625 C1.43445313 4.49179687 1.22046875 3.75703125 1 3 C0.67 2.01 0.34 1.02 0 0 Z " fill="#48474B" transform="translate(71,27)"/>
<path d="M0 0 C0.66 0.33 1.32 0.66 2 1 C1.67 2.32 1.34 3.64 1 5 C0.34 5 -0.32 5 -1 5 C-1 5.66 -1 6.32 -1 7 C-1.83144531 7.30744141 -1.83144531 7.30744141 -2.6796875 7.62109375 C-3.40414062 7.89050781 -4.12859375 8.15992187 -4.875 8.4375 C-5.95394531 8.83775391 -5.95394531 8.83775391 -7.0546875 9.24609375 C-9.03648845 9.97916854 -9.03648845 9.97916854 -11 11 C-10.1875 9.0625 -10.1875 9.0625 -9 7 C-8.01 6.67 -7.02 6.34 -6 6 C-6 5.34 -6 4.68 -6 4 C-4.03852126 2.61061923 -2.03833424 1.2739589 0 0 Z " fill="#949496" transform="translate(98,76)"/>
<path d="M0 0 C0.33 0 0.66 0 1 0 C0.91291331 1.45945288 0.80473093 2.91765868 0.6875 4.375 C0.62949219 5.18710938 0.57148437 5.99921875 0.51171875 6.8359375 C0 9 0 9 -3 11 C-5.56687367 7.1496895 -4.83288724 5.41430237 -4 1 C-3.67 1 -3.34 1 -3 1 C-3 2.98 -3 4.96 -3 7 C-2.34 7 -1.68 7 -1 7 C-0.67 4.69 -0.34 2.38 0 0 Z " fill="#C2C3C4" transform="translate(103,67)"/>
<path d="M0 0 C1.33731033 0.00399197 2.67462177 0.0187506 4.01171875 0.04296875 C5.32785156 0.04941406 6.64398438 0.05585937 8 0.0625 C11.04435455 0.20073363 13.74819717 0.51697224 16.69921875 1.23046875 C16.69921875 1.56046875 16.69921875 1.89046875 16.69921875 2.23046875 C15.85157959 2.26019775 15.85157959 2.26019775 14.98681641 2.29052734 C12.43213878 2.38565111 9.87829334 2.49537933 7.32421875 2.60546875 C6.43476562 2.63640625 5.5453125 2.66734375 4.62890625 2.69921875 C3.778125 2.73789063 2.92734375 2.7765625 2.05078125 2.81640625 C0.87249756 2.8635376 0.87249756 2.8635376 -0.32958984 2.91162109 C-2.53081064 3.07041525 -2.53081064 3.07041525 -4.30078125 5.23046875 C-4.63078125 4.24046875 -4.96078125 3.25046875 -5.30078125 2.23046875 C-3.30078125 0.23046875 -3.30078125 0.23046875 0 0 Z " fill="#E2E2E2" transform="translate(39.30078125,94.76953125)"/>
<path d="M0 0 C1.60725635 3.21451269 1.05748185 6.43612536 1 10 C2.32 10 3.64 10 5 10 C5 10.66 5 11.32 5 12 C4.01 12 3.02 12 2 12 C2 12.66 2 13.32 2 14 C1.34 14 0.68 14 0 14 C-0.99293628 11.02119115 -1.13406411 8.98398802 -1.125 5.875 C-1.12757812 4.98554688 -1.13015625 4.09609375 -1.1328125 3.1796875 C-1 1 -1 1 0 0 Z " fill="#A5A5A7" transform="translate(69,15)"/>
<path d="M0 0 C1.32 0.99 2.64 1.98 4 3 C3.67 5.31 3.34 7.62 3 10 C2.34 10 1.68 10 1 10 C0.63720544 8.71073008 0.28503302 7.41846728 -0.0625 6.125 C-0.35833984 5.04605469 -0.35833984 5.04605469 -0.66015625 3.9453125 C-1 2 -1 2 0 0 Z " fill="#606063" transform="translate(99,64)"/>
<path d="M0 0 C3.3 0 6.6 0 10 0 C10 0.99 10 1.98 10 3 C6.25838897 3 2.71046443 2.48661829 -1 2 C-0.67 1.34 -0.34 0.68 0 0 Z " fill="#494A4E" transform="translate(65,97)"/>
<path d="M0 0 C0.99 0.33 1.98 0.66 3 1 C5.52167512 6.17606998 5.19972232 11.38558376 5 17 C4.67 17 4.34 17 4 17 C3.96261719 16.41992188 3.92523438 15.83984375 3.88671875 15.2421875 C3.45809099 10.14908122 2.5386772 6.52546806 0 2 C0 1.34 0 0.68 0 0 Z " fill="#B7B7B9" transform="translate(70,29)"/>
<path d="M0 0 C0.99 0.495 0.99 0.495 2 1 C2.625 4.0625 2.625 4.0625 3 7 C3.66 6.34 4.32 5.68 5 5 C4.67 6.65 4.34 8.3 4 10 C3.34 10 2.68 10 2 10 C2 10.66 2 11.32 2 12 C1.34 12 0.68 12 0 12 C0 8.04 0 4.08 0 0 Z " fill="#E7E7E7" transform="translate(61,42)"/>
<path d="M0 0 C0.99 0 1.98 0 3 0 C3.6875 2.75 3.6875 2.75 4 6 C3.01 7.32 2.02 8.64 1 10 C0.67 6.7 0.34 3.4 0 0 Z " fill="#4B4B4C" transform="translate(62,41)"/>
<path d="M0 0 C1.65 0 3.3 0 5 0 C4.34 1.32 3.68 2.64 3 4 C1.35 4 -0.3 4 -2 4 C-1.34 3.67 -0.68 3.34 0 3 C0 2.01 0 1.02 0 0 Z " fill="#4B4B4F" transform="translate(98,97)"/>
<path d="M0 0 C0 0.99 0 1.98 0 3 C-2.31 3 -4.62 3 -7 3 C-7.33 2.34 -7.66 1.68 -8 1 C-5.32916926 -0.33541537 -2.92701445 0 0 0 Z " fill="#3D3E43" transform="translate(82,98)"/>
<path d="M0 0 C0.99 0.495 0.99 0.495 2 1 C2 2.32 2 3.64 2 5 C2.66 5 3.32 5 4 5 C3.67 5.99 3.34 6.98 3 8 C2.01 7.34 1.02 6.68 0 6 C-0.1875 2.875 -0.1875 2.875 0 0 Z " fill="#515151" transform="translate(57,30)"/>
<path d="" fill="#FEFEFE" transform="translate(0,0)"/>
</svg>
